<svg width="31" height="30" viewBox="0 0 31 30" fill="none" xmlns="http://www.w3.org/2000/svg">
<path d="M15.7166 0C11.6167 0 11.1058 0.0196875 9.5013 0.0871875C7.89021 0.165937 6.80044 0.414375 5.83888 0.785625C4.84715 1.17188 4.00249 1.68469 3.16819 2.51906C2.32824 3.34875 1.80786 4.18875 1.42512 5.175C1.05181 6.13125 0.801991 7.215 0.722804 8.81719C0.650215 10.4137 0.635132 10.9209 0.635132 14.9981C0.635132 19.0753 0.654929 19.5834 0.722804 21.1791C0.801991 22.7766 1.05181 23.865 1.42512 24.8212C1.81352 25.8075 2.32918 26.6475 3.16819 27.4772C4.00249 28.3125 4.84715 28.83 5.83888 29.2106C6.80044 29.5772 7.89493 29.8303 9.5013 29.9091C11.1067 29.9813 11.6167 29.9963 15.7166 29.9963C19.8164 29.9963 20.3274 29.9766 21.9319 29.9091C23.5382 29.8303 24.6327 29.5763 25.5943 29.2106C26.586 28.8244 27.4307 28.3116 28.265 27.4772C29.1049 26.6475 29.6253 25.8122 30.008 24.8212C30.3766 23.865 30.6312 22.7766 30.7104 21.1791C30.7829 19.5825 30.798 19.0753 30.798 14.9981C30.798 10.9209 30.7782 10.4128 30.7104 8.81719C30.6312 7.21969 30.3757 6.12563 30.008 5.175C29.6196 4.18875 29.104 3.34875 28.265 2.51906C27.4307 1.68375 26.5907 1.16625 25.5943 0.785625C24.6327 0.414375 23.5382 0.165937 21.9319 0.0871875C20.3264 0.015 19.8164 0 15.7166 0ZM15.7166 2.7C19.7429 2.7 20.2237 2.71969 21.815 2.78719C23.2828 2.85563 24.0822 3.09938 24.6129 3.30562C25.3209 3.57844 25.8158 3.90094 26.3513 4.42781C26.8764 4.95 27.2007 5.44781 27.475 6.15188C27.6824 6.67969 27.9275 7.47469 27.9963 8.93437C28.0642 10.5169 28.084 10.9959 28.084 14.9991C28.084 19.0022 28.0642 19.4813 27.9906 21.0638C27.9115 22.5234 27.6663 23.3184 27.4599 23.8463C27.1743 24.5503 26.8556 25.0425 26.3296 25.575C25.7988 26.0972 25.2936 26.4197 24.5912 26.6925C24.0671 26.8988 23.2564 27.1425 21.7829 27.2109C20.1831 27.2784 19.7118 27.2981 15.6751 27.2981C11.6384 27.2981 11.168 27.2784 9.56635 27.2053C8.09855 27.1266 7.28877 26.8828 6.75802 26.6775C6.04156 26.3934 5.55041 26.0766 5.02438 25.5534C4.49364 25.0256 4.15615 24.5231 3.89596 23.8247C3.68479 23.3034 3.44346 22.4972 3.36522 21.0319C3.31148 19.4597 3.28603 18.9722 3.28603 14.9766C3.28603 10.9828 3.31148 10.4944 3.36522 8.9025C3.44346 7.43719 3.68479 6.63281 3.89596 6.10969C4.15615 5.39625 4.49458 4.90875 5.02438 4.38094C5.54947 3.85875 6.04156 3.52125 6.75802 3.25688C7.28877 3.05156 8.07876 2.80781 9.55221 2.73469C11.152 2.6775 11.6233 2.65688 15.6544 2.65688L15.7166 2.7ZM15.7166 7.30031C11.4357 7.30031 7.97412 10.7475 7.97412 15C7.97412 19.2572 11.4405 22.6997 15.7166 22.6997C19.9974 22.6997 23.459 19.2525 23.459 15C23.459 10.7428 19.9927 7.30031 15.7166 7.30031ZM15.7166 19.9997C12.9375 19.9997 10.6891 17.7638 10.6891 15C10.6891 12.2362 12.9375 10.0003 15.7166 10.0003C18.4957 10.0003 20.744 12.2362 20.744 15C20.744 17.7638 18.4957 19.9997 15.7166 19.9997ZM25.5811 6.99281C25.5811 7.98938 24.7656 8.79375 23.7683 8.79375C22.7662 8.79375 21.9573 7.98844 21.9573 6.99281C21.9573 6.00187 22.7718 5.19562 23.7683 5.19562C24.7647 5.19562 25.5811 6.00187 25.5811 6.99281Z" fill="black"/>
</svg>
