<svg width="26" height="24" viewBox="0 0 26 24" fill="none" xmlns="http://www.w3.org/2000/svg">
<path d="M24.884 0.719443C24.6243 0.496381 24.3081 0.348245 23.9697 0.291077C23.6314 0.233909 23.2837 0.269888 22.9645 0.395117L1.21651 8.89178C0.837439 9.03988 0.51678 9.30607 0.302515 9.65051C0.08825 9.99496 -0.00809988 10.3991 0.0278824 10.8026C0.0638646 11.206 0.230244 11.587 0.502126 11.8886C0.774007 12.1902 1.13677 12.3961 1.53614 12.4755L7.06028 13.5743V20.436C7.05996 20.807 7.17035 21.1697 7.37747 21.4783C7.58458 21.7868 7.87911 22.0273 8.22376 22.1693C8.5684 22.3112 8.94766 22.3483 9.3135 22.2758C9.67934 22.2032 10.0153 22.0244 10.2789 21.7618L13.336 18.7216L17.976 22.7823C18.3176 23.084 18.7585 23.2508 19.2153 23.2514C19.4139 23.2512 19.6113 23.22 19.8002 23.1591C20.1118 23.0609 20.392 22.883 20.613 22.6434C20.8339 22.4038 20.9878 22.1107 21.0592 21.7935L25.4916 2.5592C25.5688 2.2266 25.553 1.87934 25.4459 1.55504C25.3388 1.23075 25.1445 0.941778 24.884 0.719443ZM7.78451 11.8061L1.90611 10.637L18.366 4.20626L7.78451 11.8061ZM8.94569 20.4351V14.8795L11.9176 17.4803L8.94569 20.4351ZM19.2215 21.3747L9.51251 12.8779L23.4935 2.83643L19.2215 21.3747Z" fill="black"/>
</svg>
