<svg width="30" height="30" viewBox="0 0 30 30" fill="none" xmlns="http://www.w3.org/2000/svg">
<g clip-path="url(#clip0_2_218)">
<path d="M15.0001 0C10.9229 0 10.4148 0.0196875 8.81914 0.0871875C7.21695 0.165937 6.1332 0.414375 5.17695 0.785625C4.1907 1.17188 3.3507 1.68469 2.52102 2.51906C1.6857 3.34875 1.1682 4.18875 0.787578 5.175C0.416328 6.13125 0.167891 7.215 0.0891406 8.81719C0.0169531 10.4137 0.00195312 10.9209 0.00195312 14.9981C0.00195312 19.0753 0.0216406 19.5834 0.0891406 21.1791C0.167891 22.7766 0.416328 23.865 0.787578 24.8212C1.17383 25.8075 1.68664 26.6475 2.52102 27.4772C3.3507 28.3125 4.1907 28.83 5.17695 29.2106C6.1332 29.5772 7.22164 29.8303 8.81914 29.9091C10.4157 29.9813 10.9229 29.9963 15.0001 29.9963C19.0773 29.9963 19.5854 29.9766 21.181 29.9091C22.7785 29.8303 23.867 29.5763 24.8232 29.2106C25.8095 28.8244 26.6495 28.3116 27.4791 27.4772C28.3145 26.6475 28.832 25.8122 29.2126 24.8212C29.5791 23.865 29.8323 22.7766 29.911 21.1791C29.9832 19.5825 29.9982 19.0753 29.9982 14.9981C29.9982 10.9209 29.9785 10.4128 29.911 8.81719C29.8323 7.21969 29.5782 6.12563 29.2126 5.175C28.8263 4.18875 28.3135 3.34875 27.4791 2.51906C26.6495 1.68375 25.8141 1.16625 24.8232 0.785625C23.867 0.414375 22.7785 0.165937 21.181 0.0871875C19.5845 0.015 19.0773 0 15.0001 0ZM15.0001 2.7C19.0041 2.7 19.4823 2.71969 21.0648 2.78719C22.5245 2.85563 23.3195 3.09938 23.8473 3.30562C24.5513 3.57844 25.0435 3.90094 25.576 4.42781C26.0982 4.95 26.4207 5.44781 26.6935 6.15188C26.8998 6.67969 27.1435 7.47469 27.212 8.93437C27.2795 10.5169 27.2991 10.9959 27.2991 14.9991C27.2991 19.0022 27.2795 19.4813 27.2063 21.0638C27.1276 22.5234 26.8838 23.3184 26.6785 23.8463C26.3945 24.5503 26.0776 25.0425 25.5545 25.575C25.0266 26.0972 24.5241 26.4197 23.8257 26.6925C23.3045 26.8988 22.4982 27.1425 21.0329 27.2109C19.442 27.2784 18.9732 27.2981 14.9588 27.2981C10.9445 27.2981 10.4766 27.2784 8.88383 27.2053C7.42414 27.1266 6.61883 26.8828 6.09102 26.6775C5.37852 26.3934 4.89008 26.0766 4.36695 25.5534C3.83914 25.0256 3.50352 24.5231 3.24477 23.8247C3.03477 23.3034 2.79477 22.4972 2.71695 21.0319C2.66352 19.4597 2.6382 18.9722 2.6382 14.9766C2.6382 10.9828 2.66352 10.4944 2.71695 8.9025C2.79477 7.43719 3.03477 6.63281 3.24477 6.10969C3.50352 5.39625 3.84008 4.90875 4.36695 4.38094C4.88914 3.85875 5.37852 3.52125 6.09102 3.25688C6.61883 3.05156 7.40445 2.80781 8.86977 2.73469C10.4607 2.6775 10.9295 2.65688 14.9382 2.65688L15.0001 2.7ZM15.0001 7.30031C10.7429 7.30031 7.30039 10.7475 7.30039 15C7.30039 19.2572 10.7476 22.6997 15.0001 22.6997C19.2573 22.6997 22.6998 19.2525 22.6998 15C22.6998 10.7428 19.2526 7.30031 15.0001 7.30031ZM15.0001 19.9997C12.2363 19.9997 10.0004 17.7638 10.0004 15C10.0004 12.2362 12.2363 10.0003 15.0001 10.0003C17.7638 10.0003 19.9998 12.2362 19.9998 15C19.9998 17.7638 17.7638 19.9997 15.0001 19.9997ZM24.8101 6.99281C24.8101 7.98938 23.9991 8.79375 23.0073 8.79375C22.0107 8.79375 21.2063 7.98844 21.2063 6.99281C21.2063 6.00187 22.0163 5.19562 23.0073 5.19562C23.9982 5.19562 24.8101 6.00187 24.8101 6.99281Z" fill="white"/>
</g>
<defs>
<clipPath id="clip0_2_218">
<rect width="30" height="30" fill="white"/>
</clipPath>
</defs>
</svg>
