<svg width="20" height="20" viewBox="0 0 20 20" fill="none" xmlns="http://www.w3.org/2000/svg">
<path d="M1 2.49918V4.5051C1 12.5106 7.49187 19.0003 15.5 19.0003H17.5C18.3284 19.0003 19 18.329 19 17.5008V14.9366C19 14.2912 18.5869 13.7182 17.9743 13.514L14.7911 12.4533C14.1494 12.2395 13.4439 12.4815 13.0687 13.0441L12.3397 14.1372C11.9645 14.6998 11.259 14.9418 10.6173 14.728L9.09189 14.2197C7.52761 13.6984 6.32743 12.4301 5.89358 10.8399L5.26652 8.5414C5.05706 7.77361 5.48408 6.97597 6.23933 6.7243L6.84189 6.52351C7.47227 6.31345 7.85611 5.67615 7.74687 5.02092L7.28534 2.25266C7.16479 1.52962 6.539 0.999671 5.80575 0.999671H2.5C1.67157 0.999671 1 1.67102 1 2.49918ZM0 2.49918C0 1.11892 1.11929 0 2.5 0H5.80575C7.02784 0 8.07082 0.883242 8.27173 2.08832L8.73326 4.85658C8.9234 5.99703 8.25532 7.10627 7.15811 7.47188L6.55556 7.67267C6.30381 7.75656 6.16146 8.02244 6.23129 8.27837L6.85834 10.5768C7.20422 11.8446 8.16104 12.8557 9.40811 13.2713L10.9335 13.7796C11.1474 13.8509 11.3826 13.7702 11.5077 13.5827L12.2366 12.4896C12.862 11.5518 14.0378 11.1486 15.1073 11.5049L18.2906 12.5657C19.3114 12.9058 20 13.8609 20 14.9366V17.5008C20 18.8811 18.8807 20 17.5 20H15.5C6.93959 20 0 13.0627 0 4.5051V2.49918Z" fill="white"/>
</svg>
