<svg width="30" height="30" viewBox="0 0 30 30" fill="none" xmlns="http://www.w3.org/2000/svg">
<path d="M27.1002 3.7191C26.8419 3.49604 26.5274 3.34791 26.1909 3.29074C25.8544 3.23357 25.5087 3.26955 25.1912 3.39478L3.56342 11.8914C3.18644 12.0395 2.86755 12.3057 2.65447 12.6502C2.44139 12.9946 2.34557 13.3988 2.38136 13.8022C2.41714 14.2057 2.5826 14.5867 2.85298 14.8883C3.12336 15.1898 3.48412 15.3957 3.88128 15.4752L9.3749 16.5739V23.4357C9.37458 23.8067 9.48436 24.1694 9.69034 24.4779C9.89631 24.7865 10.1892 25.027 10.532 25.1689C10.8747 25.3109 11.2519 25.3479 11.6157 25.2754C11.9795 25.2029 12.3136 25.024 12.5757 24.7615L15.6159 21.7213L20.2303 25.7819C20.57 26.0836 21.0084 26.2505 21.4628 26.251C21.6603 26.2508 21.8565 26.2197 22.0444 26.1588C22.3543 26.0605 22.633 25.8827 22.8527 25.6431C23.0724 25.4034 23.2254 25.1104 23.2965 24.7932L27.7044 5.55886C27.7811 5.22626 27.7654 4.879 27.6589 4.5547C27.5524 4.23041 27.3592 3.94144 27.1002 3.7191ZM10.0951 14.8058L4.24921 13.6366L20.6181 7.20592L10.0951 14.8058ZM11.2499 23.4348V17.8792L14.2053 20.48L11.2499 23.4348ZM21.4689 24.3743L11.8136 15.8775L25.7173 5.83609L21.4689 24.3743Z" fill="white"/>
</svg>
